<svg xmlns="http://www.w3.org/2000/svg" viewBox="0 0 512 640" x="0px" y="0px"><title>barley-wheat-branch-nature-food</title><g data-name="10 copy 5"><g><rect x="63.57" y="50.451" width="15.999" height="16" transform="translate(-19.637 43.616) rotate(-30)"/><rect x="434.058" y="48.452" width="16" height="15.999" transform="translate(172.131 411.051) rotate(-59.998)"/><path d="M412.217,103.875a87.049,87.049,0,0,1,13.385-2.921l11.384-19.718-13.856-8L409.959,96.049Q411.266,99.9,412.217,103.875Z"/><path d="M390.383,63.562l23.034-39.895-13.856-8L378.122,52.8A87.669,87.669,0,0,1,390.383,63.562Z"/><path d="M496.555,71.667l-13.855-8-22.747,39.4a88.167,88.167,0,0,1,15.251,5.582Z"/><path d="M437.543,116.143a71.553,71.553,0,0,0-28.356,5.84l-9.811,4.207-1.284-10.6A71.483,71.483,0,0,0,362.633,61.8L356.5,58.257,341.7,83.877A71.569,71.569,0,0,0,332.08,120.8a88.555,88.555,0,0,1,40.137,55.077,87.725,87.725,0,0,1,67.056,6.835,71.553,71.553,0,0,0,27.14-26.833l14.791-25.62-7.72-4.457A71.985,71.985,0,0,0,437.543,116.143Z"/><path d="M332.217,239.875a87.74,87.74,0,0,1,69.267,8.069l2.283,1.318a71.7,71.7,0,0,0,22.645-24.1l13.614-23.581-6.542-3.778a71.732,71.732,0,0,0-64.3-3.817l-9.811,4.207-1.284-10.6A71.483,71.483,0,0,0,322.633,133.8l-7.313-4.222L301.7,153.159a71.554,71.554,0,0,0-9.51,31.708A88.556,88.556,0,0,1,332.217,239.875Z"/><path d="M88.026,102.954a87.063,87.063,0,0,1,13.384,2.921q.95-3.974,2.258-7.826L90.5,75.236l-13.855,8Z"/><path d="M135.505,54.8,114.066,17.667l-13.855,8,23.033,39.895A87.669,87.669,0,0,1,135.505,54.8Z"/><path d="M53.675,105.066l-22.747-39.4-13.856,8,21.351,36.981A88.177,88.177,0,0,1,53.675,105.066Z"/><path d="M393.484,261.8a71.732,71.732,0,0,0-64.3-3.817l-9.811,4.207-1.284-10.6A71.483,71.483,0,0,0,282.633,197.8l-5.026-2.9-15.9,27.543a72.181,72.181,0,0,0-5.275,11.273,72.281,72.281,0,0,0-4.507-9.273L236.02,196.9l-5.026,2.9a71.488,71.488,0,0,0-35.459,53.793l-1.284,10.6-9.811-4.207a71.73,71.73,0,0,0-64.3,3.817l-8.83,5.1,15.9,27.543a71.667,71.667,0,0,0,23.228,24.484l1.7-.981a87.793,87.793,0,0,1,62.111-9.905h0l.391.084.244.054c.191.041.381.084.572.127l.279.064.484.113.364.086.314.077q.261.063.522.129l.275.07.506.13.267.07.479.128.2.055.6.166.212.06c.2.056.4.112.593.17l.208.061q.278.081.554.165l.068.02h0l.023.007a88.559,88.559,0,0,1,40.061-55.03h0q.756-.456,1.523-.9l19.194-11.081,23.592,40.86a87.843,87.843,0,0,1,8.6,20.477q1.579-.057,3.165-.057a88.007,88.007,0,0,1,43.941,11.8l1.7.981a71.667,71.667,0,0,0,23.228-24.484l15.9-27.543Z"/><path d="M317.543,322.143h-.306a88.322,88.322,0,0,1-29.325,73.471l-.214.189-.271.237-.218.189-.28.242-.2.174-.452.383-.195.163-.3.247-.21.174-.315.258-.185.15-.452.365-.183.146-.341.27-.209.164-.319.249c-.064.05-.128.1-.193.149q-.2.156-.4.309A88.4,88.4,0,0,1,260.524,412.1L307.765,495H344.6l-54.431-95.518a72.764,72.764,0,0,0,12.529-2.212,71.536,71.536,0,0,0,43.72-33.547l15.59-27-8.519-4.919A71.985,71.985,0,0,0,317.543,322.143Z"/><path d="M291.924,293.723l-15.592-27-5.338,3.081a71.488,71.488,0,0,0-35.459,53.793l-1.284,10.6-9.811-4.207a71.73,71.73,0,0,0-64.3,3.817l-8.519,4.919,15.59,27a71.53,71.53,0,0,0,43.72,33.547,72.4,72.4,0,0,0,18.752,2.484,72.05,72.05,0,0,0,62.237-108.031Z"/><path d="M114.251,128.19l-9.811-4.207a71.73,71.73,0,0,0-64.3,3.817l-7.72,4.457,14.791,25.62A71.551,71.551,0,0,0,74.354,184.71a87.725,87.725,0,0,1,67.056-6.835A88.559,88.559,0,0,1,181.547,122.8a71.558,71.558,0,0,0-9.623-36.921l-14.793-25.62L150.994,63.8a71.488,71.488,0,0,0-35.459,53.793Z"/><path d="M156.084,238.143a87.306,87.306,0,0,1,25.326,3.732,88.561,88.561,0,0,1,40.024-55.008,71.58,71.58,0,0,0-9.51-31.708l-13.616-23.581-7.314,4.222a71.488,71.488,0,0,0-35.459,53.793l-1.284,10.6-9.811-4.207a71.73,71.73,0,0,0-64.3,3.817L73.6,203.578l13.615,23.581a71.683,71.683,0,0,0,22.644,24.1l2.284-1.318A88,88,0,0,1,156.084,238.143Z"/><path d="M424.342,331.227l-6.928-4-14.241,24.665a48.96,48.96,0,0,0,17.921,66.88l6.927,4,14.242-24.665A49.017,49.017,0,0,0,424.342,331.227Z"/><path d="M58.881,325.873l-27.587-7.065-1.986,7.75a49.014,49.014,0,0,0,35.265,59.578L92.158,393.2l1.987-7.75A49.012,49.012,0,0,0,58.881,325.873Z"/></g></g><text x="0" y="527" fill="#000000" font-size="5px" font-weight="bold" font-family="'Helvetica Neue', Helvetica, Arial-Unicode, Arial, Sans-serif">Created by LINECTOR </text><text x="0" y="532" fill="#000000" font-size="5px" font-weight="bold" font-family="'Helvetica Neue', Helvetica, Arial-Unicode, Arial, Sans-serif">from the Noun Project</text></svg>