<?xml version="1.0" encoding="UTF-8"?>
<!-- Generated by Pixelmator Pro 2.4.7 -->
<svg width="1024" height="550" viewBox="0 0 1024 550" xmlns="http://www.w3.org/2000/svg" xmlns:xlink="http://www.w3.org/1999/xlink">
    <path id="Shape" fill="#000000" fill-rule="evenodd" stroke="none" d="M 474.705139 375.454163 C 473.703674 376.121765 472.70224 376.372162 471.700775 376.205261 C 470.69931 376.03833 469.739594 375.662781 468.821594 375.078613 C 467.903564 374.494446 467.069061 373.743347 466.317932 372.825317 C 465.566864 371.907318 464.857483 371.114502 464.18985 370.446869 C 462.687653 369.278503 462.061768 367.859802 462.312134 366.190674 C 462.5625 364.521606 463.313599 362.810791 464.565399 361.058228 C 465.81723 359.305664 467.277649 357.636597 468.946777 356.050964 C 470.615875 354.465332 472.034576 353.255249 473.202942 352.420685 C 475.205872 351.085449 477.500824 349.458069 480.087921 347.538605 C 482.675079 345.619141 485.387299 343.82489 488.224792 342.155823 C 491.062225 340.486664 493.983124 339.151428 496.987518 338.149963 C 499.991882 337.148499 502.74585 336.814697 505.249512 337.148499 C 506.584778 337.148499 508.462494 337.231995 510.88269 337.398865 C 513.302856 337.565796 515.430969 337.48233 517.266968 337.148499 C 518.936035 336.480865 521.147583 336.439148 523.901611 337.023346 C 526.65564 337.607513 529.493042 338.525513 532.41394 339.777344 C 535.334839 341.029144 538.005432 342.573059 540.425598 344.409058 C 542.845764 346.245056 544.55658 347.997589 545.558044 349.666687 C 549.063171 354.674011 551.483337 358.930145 552.818604 362.435242 C 554.15387 365.940338 554.738037 369.195007 554.571167 372.199402 C 554.404236 375.203796 553.653137 378.20813 552.317871 381.212524 C 550.982605 384.216919 549.480469 387.80542 547.81134 391.978149 C 546.976807 393.814148 546.309143 395.817047 545.808411 397.986877 C 545.307678 400.156677 544.556641 402.159607 543.555176 403.995605 C 542.887512 405.497803 541.802612 407.083435 540.300415 408.752533 C 538.798218 410.421631 537.12915 412.04895 535.293152 413.634583 C 533.457153 415.220245 531.662903 416.76416 529.910339 418.266327 C 528.157776 419.768524 526.697327 421.270691 525.528992 422.772888 C 523.692932 424.775787 521.94043 426.987305 520.271301 429.407532 C 518.602234 431.827728 517.100098 434.206146 515.764771 436.542877 C 514.763306 439.046509 513.386292 441.38324 511.633789 443.55307 C 509.881226 445.7229 508.17041 447.767517 506.501312 449.686981 C 504.832214 451.606445 503.413513 453.400696 502.245117 455.069794 C 501.076752 456.738892 500.492584 458.241089 500.492584 459.576324 C 500.492584 460.410889 501.201965 460.828186 502.620697 460.828186 C 504.039398 460.828186 504.91568 460.661255 505.249512 460.327454 C 507.753174 459.65979 510.006378 459.325989 512.009338 459.325989 C 514.012268 459.325989 515.973389 459.409424 517.892883 459.576324 C 519.812317 459.743286 521.815186 459.868408 523.901611 459.951904 C 525.987976 460.035339 528.366394 459.910156 531.036987 459.576324 C 533.87439 459.075592 536.795288 457.948975 539.799683 456.196442 C 542.804077 454.443878 545.808411 452.649628 548.812805 450.813599 C 551.817139 448.9776 554.654541 447.308533 557.325134 445.806335 C 559.995728 444.304138 562.415894 443.55307 564.585693 443.55307 C 566.421692 443.55307 567.464905 444.554535 567.71521 446.557434 C 567.965637 448.560364 567.71521 451.105682 566.964172 454.193542 C 566.213074 457.281372 565.086426 460.619507 563.584229 464.208069 C 562.082031 467.796631 560.579895 471.176514 559.077698 474.347778 C 557.5755 477.519073 556.198486 480.231323 554.946716 482.484619 C 553.694824 484.737915 552.9021 485.947968 552.568237 486.114899 C 550.231506 487.450165 547.644409 488.07608 544.806946 487.992645 C 541.969482 487.90918 539.006897 487.575348 535.919067 486.99118 C 532.831238 486.406982 529.826843 485.697632 526.905945 484.863068 C 523.985046 484.028534 521.439697 483.527802 519.269836 483.360901 C 518.602234 483.19397 517.141785 483.110535 514.888489 483.110535 C 512.635193 483.110535 509.964691 483.110535 506.876862 483.110535 C 503.789032 483.110535 500.450867 483.110535 496.862305 483.110535 C 493.273743 483.110535 489.810425 482.943634 486.472229 482.609802 C 484.6362 482.276001 482.925415 482.150818 481.339783 482.234253 C 479.75415 482.317688 478.251953 482.484619 476.833252 482.734985 C 475.41449 482.985352 474.079254 483.152283 472.827393 483.235718 C 471.575592 483.319153 470.53241 483.110535 469.697845 482.609802 C 468.696381 481.942169 467.694977 480.982452 466.693512 479.730652 C 465.692047 478.47879 464.857483 477.185272 464.18985 475.849976 C 463.522217 474.514679 463.063232 473.179443 462.812866 471.844177 C 462.5625 470.508881 462.604218 469.423981 462.938049 468.589447 C 463.605682 466.920349 464.648834 465.543365 466.067596 464.458435 C 467.486328 463.373535 469.030243 462.413818 470.69931 461.579254 C 472.368408 460.74469 473.995758 459.951904 475.58139 459.200806 C 477.167023 458.449707 478.460602 457.406555 479.462036 456.071259 C 481.298035 453.734497 483.384399 451.14743 485.72113 448.309998 C 488.057892 445.472504 490.644958 442.968872 493.482391 440.799072 C 494.483856 439.463806 495.568756 438.295441 496.737122 437.293976 C 497.905518 436.292542 499.157318 434.87381 500.492584 433.037781 C 500.826416 432.036316 501.160217 430.867981 501.494049 429.532715 C 501.827881 428.197418 502.161682 426.862183 502.495514 425.526855 C 503.663879 421.854858 505.458099 418.391541 507.878326 415.13678 C 510.298523 411.88208 512.635193 408.585632 514.888489 405.247406 C 517.141785 401.909241 519.019531 398.362457 520.521729 394.606995 C 522.023865 390.851501 522.524597 386.72052 522.023865 382.213989 C 521.356201 377.707397 519.436768 373.618164 516.265503 369.946136 C 513.094238 366.274109 509.422241 363.603638 505.249512 361.934509 C 501.076752 360.265381 496.77887 359.848145 492.355774 360.682678 C 487.932648 361.517242 484.135529 364.104309 480.964233 368.44397 C 479.962769 369.445435 479.003052 370.530334 478.085052 371.698669 C 477.167023 372.867065 476.040436 374.118896 474.705139 375.454163 Z"/>
    <path id="H2O" fill="#000000" fill-rule="evenodd" stroke="none" d="M 603.453247 65.125 L 931.926147 65.125 C 937.975403 65.881165 941 68.905762 941 74.198853 L 941 402.671783 C 940.243835 408.721069 937.219238 411.745605 931.926147 411.745605 L 603.453247 411.745605 C 597.403992 410.989471 594.379395 407.964905 594.379395 402.671783 L 594.379395 74.198853 C 595.135559 68.149628 598.160156 65.125 603.453247 65.125 Z M 603.453247 74.198853 L 603.453247 402.671783 L 931.926147 402.671783 L 931.926147 74.198853 Z M 919.222778 83.272675 C 923.00354 83.272675 925.120789 86.297302 925.574463 92.346527 C 925.574463 94.01004 921.945068 97.942047 914.685852 104.142517 L 925.574463 104.142517 L 925.574463 107.772034 L 907.426819 107.772034 C 907.426819 104.444977 911.661255 99.605591 920.130188 93.253906 C 920.735107 92.195282 921.037537 90.985443 921.037537 89.624359 C 921.037537 88.71698 920.130188 87.809601 918.31543 86.902222 C 914.685852 86.902222 912.871094 88.71698 912.871094 92.346527 L 908.334167 92.346527 L 908.334167 91.439117 C 908.334167 85.994843 911.963745 83.272675 919.222778 83.272675 Z M 690.562073 85.994843 C 699.031006 85.994843 703.265442 91.439026 703.265442 102.327728 C 703.265442 114.4263 698.728577 120.475403 689.654663 120.475403 L 688.747314 120.475403 C 682.698059 119.265564 679.673462 116.240967 679.673462 111.401581 L 686.025146 111.401581 C 686.327637 113.821259 687.234985 115.031097 688.747314 115.031097 L 689.654663 115.031097 C 694.494141 115.031097 696.913757 111.704041 696.913757 105.049896 C 694.49408 107.469574 691.167053 108.679413 686.932556 108.679413 C 681.48822 106.864655 678.766052 102.932648 678.766052 96.883423 C 678.766052 90.531738 682.697998 86.902222 690.562073 85.994843 Z M 716.876221 85.994843 C 725.345154 85.994843 729.57959 91.439026 729.57959 102.327728 C 729.57959 114.4263 725.042725 120.475403 715.968811 120.475403 L 715.061401 120.475403 C 709.012207 119.265564 705.98761 116.240967 705.98761 111.401581 L 712.339294 111.401581 C 712.641724 113.821259 713.549133 115.031097 715.061401 115.031097 L 715.968811 115.031097 C 720.808228 115.031097 723.227905 111.704041 723.227905 105.049896 C 720.808167 107.469574 717.48114 108.679413 713.246643 108.679413 C 707.802368 106.864655 705.0802 102.932648 705.0802 96.883423 C 705.0802 90.531738 709.012146 86.902222 716.876221 85.994843 Z M 743.190308 85.994843 C 751.659302 85.994843 755.893677 91.439026 755.893677 102.327728 C 755.893677 114.4263 751.356812 120.475403 742.282959 120.475403 L 741.375549 120.475403 C 735.326355 119.265564 732.301697 116.240967 732.301697 111.401581 L 738.653381 111.401581 C 738.955872 113.821259 739.863281 115.031097 741.375549 115.031097 L 742.282959 115.031097 C 747.122375 115.031097 749.541992 111.704041 749.541992 105.049896 C 747.122314 107.469574 743.795288 108.679413 739.560791 108.679413 C 734.116516 106.864655 731.394348 102.932648 731.394348 96.883423 C 731.394348 90.531738 735.326294 86.902222 743.190308 85.994843 Z M 626.137817 86.902222 L 631.582092 86.902222 L 631.582092 119.568024 L 625.230408 119.568024 L 625.230408 98.698212 L 617.063965 98.698212 L 617.063965 93.253906 C 623.11322 93.253906 626.137817 91.136658 626.137817 86.902222 Z M 645.192871 86.902222 L 663.340576 86.902222 L 663.340576 92.346527 L 649.729797 92.346527 C 649.729797 93.858826 649.427307 96.278503 648.822388 99.605591 C 651.090942 97.790833 653.208069 96.883423 655.174072 96.883423 C 661.828308 96.883423 665.155334 101.117889 665.155334 109.586823 C 663.49176 116.845886 659.862305 120.475403 654.266724 120.475403 L 651.544556 120.475403 C 644.285461 118.81189 640.655945 115.484802 640.655945 110.494202 L 647.915039 110.494202 C 647.915039 113.518799 649.729797 115.031097 653.359314 115.031097 L 655.174072 115.031097 C 657.593811 113.972504 658.80365 111.855255 658.80365 108.679413 C 658.80365 105.352356 657.593811 103.235107 655.174072 102.327728 L 653.359314 102.327728 C 650.334717 102.327728 648.822388 103.235107 648.822388 105.049896 L 642.470703 105.049896 C 642.470703 103.083893 643.378113 97.03476 645.192871 86.902222 Z M 771.319214 86.902222 L 776.76355 86.902222 L 776.76355 106.864655 L 781.300476 106.864655 L 781.300476 112.30896 L 776.76355 112.30896 L 776.76355 119.568024 L 770.411865 119.568024 L 770.411865 112.30896 L 756.801086 112.30896 L 756.801086 105.957275 C 766.026184 93.253815 770.86554 86.902222 771.319214 86.902222 Z M 685.117737 97.790833 C 685.117737 100.21051 686.327637 102.025269 688.747314 103.235107 L 692.376831 103.235107 C 693.284241 103.235107 694.49408 102.025269 696.006348 99.605591 L 696.006348 95.068665 C 696.006348 94.161285 694.79657 92.951447 692.376831 91.439117 L 688.747314 91.439117 C 686.327637 92.346527 685.117737 94.463745 685.117737 97.790833 Z M 711.431885 97.790833 C 711.431885 100.21051 712.641724 102.025269 715.061401 103.235107 L 718.690979 103.235107 C 719.598328 103.235107 720.808167 102.025269 722.320496 99.605591 L 722.320496 95.068665 C 722.320496 94.161285 721.110718 92.951447 718.690979 91.439117 L 715.061401 91.439117 C 712.641724 92.346527 711.431885 94.463745 711.431885 97.790833 Z M 737.746033 97.790833 C 737.746033 100.21051 738.955872 102.025269 741.375549 103.235107 L 745.005066 103.235107 C 745.912476 103.235107 747.122314 102.025269 748.634644 99.605591 L 748.634644 95.068665 C 748.634644 94.161285 747.424805 92.951447 745.005066 91.439117 L 741.375549 91.439117 C 738.955872 92.346527 737.746033 94.463745 737.746033 97.790833 Z M 762.245361 106.864655 L 770.411865 106.864655 L 770.411865 95.976044 C 769.202026 96.429749 766.479919 100.059265 762.245361 106.864655 Z M 668.784851 112.30896 L 676.043945 112.30896 L 676.043945 119.568024 L 668.784851 119.568024 Z M 917.40802 114.123718 C 922.852295 115.031097 925.574463 117.450806 925.574463 121.382782 L 921.944946 121.382782 L 918.31543 117.753265 L 916.50061 117.753265 C 914.988342 117.753265 913.778503 120.172943 912.871094 125.012329 L 913.778503 125.012329 C 915.744507 123.80249 917.559265 123.197571 919.222778 123.197571 C 923.457275 124.40741 925.574463 126.827087 925.574463 130.456635 C 924.818298 135.90094 922.096191 138.623077 917.40802 138.623077 C 911.358765 138.623077 908.334167 134.993561 908.334167 127.734497 L 908.334167 126.827087 C 908.334167 119.719269 911.056335 115.484802 916.50061 114.123718 Z M 912.871094 130.456635 C 914.080933 133.178772 915.290771 134.691101 916.50061 134.993561 L 918.31543 134.993561 C 919.222778 134.993561 920.130188 134.086182 921.037537 132.271393 L 921.037537 129.549255 C 921.037537 128.641876 920.130188 127.734497 918.31543 126.827087 C 915.744507 126.827087 913.929688 128.036957 912.871094 130.456635 Z M 764.967529 161.307678 C 796.574951 161.307678 818.351929 177.035461 830.299194 208.491638 C 832.718872 218.321625 833.928711 227.395477 833.928711 235.713165 C 833.928711 268.9841 817.898438 291.668396 785.837341 303.766968 C 779.183228 304.976807 772.226685 305.884155 764.967529 306.489075 C 730.789246 306.489075 708.407349 288.644073 697.821106 252.953461 C 696.611267 245.391907 696.006348 239.040222 696.006348 233.898376 C 696.006348 198.510223 712.339111 175.221008 745.005066 164.029846 C 751.205627 162.819977 757.85968 161.912598 764.967529 161.307678 Z M 726.857422 234.805786 C 726.857422 256.885559 734.721375 271.403595 750.449402 278.360199 C 755.288818 280.174957 760.430603 281.082336 765.874939 281.082336 C 786.896057 281.082336 799.296875 267.47168 803.077637 240.250092 L 803.077637 234.805786 C 803.077637 208.491547 793.096558 192.763672 773.133972 187.621826 C 769.95813 187.016907 766.933594 186.714447 764.060181 186.714447 C 745.307434 186.714447 733.209167 198.207855 727.764832 221.195007 C 727.159851 226.488098 726.857422 231.025024 726.857422 234.805786 Z M 625.230408 358.209961 L 627.952576 358.209961 C 634.60675 359.268585 637.933777 362.595642 637.933777 368.191193 C 636.875183 371.21582 635.362854 372.728119 633.396912 372.728119 C 637.026489 375.601501 638.841187 378.626099 638.841187 381.801941 C 638.841187 389.061096 634.909241 392.690552 627.045227 392.690552 L 626.137817 392.690552 C 619.634888 392.690552 615.702881 389.666016 614.341797 383.61673 L 614.341797 381.801941 C 615.097961 376.962585 616.91272 374.542877 619.786133 374.542877 L 619.786133 372.728119 C 616.761536 372.728119 615.249207 370.610901 615.249207 366.376434 C 615.249207 362.293213 618.576294 359.571045 625.230408 358.209961 Z M 621.600891 366.376434 L 621.600891 369.098572 C 622.205811 370.91333 624.020569 371.82074 627.045227 371.82074 C 630.069885 371.367035 631.582092 370.459656 631.582092 369.098572 L 631.582092 366.376434 C 631.582092 365.469055 630.674744 364.561646 628.859985 363.654297 L 624.323059 363.654297 C 623.415649 363.654297 622.508301 364.561646 621.600891 366.376434 Z M 620.693481 379.987183 L 620.693481 383.61673 C 620.693481 384.524109 621.903381 385.733948 624.323059 387.246277 L 628.859985 387.246277 C 629.767334 387.246277 630.977173 386.036407 632.489502 383.61673 L 632.489502 379.987183 C 631.582092 377.567505 629.464966 376.357666 626.137817 376.357666 C 623.71814 376.357666 621.903381 377.567505 620.693481 379.987183 Z M 96.073837 65.125 L 424.546783 65.125 C 430.596069 65.881165 433.620636 68.905762 433.620636 74.198853 L 433.620636 402.671783 C 432.864471 408.721069 429.839905 411.745605 424.546783 411.745605 L 96.073837 411.745605 C 90.02459 410.989471 87 407.964905 87 402.671783 L 87 74.198853 C 87.756157 68.149628 90.780739 65.125 96.073837 65.125 Z M 96.073837 74.198853 L 96.073837 402.671783 L 424.546783 402.671783 L 424.546783 74.198853 Z M 409.121246 84.180054 L 412.750793 84.180054 L 412.750793 107.772034 L 408.213867 107.772034 L 408.213867 92.346527 L 402.769562 92.346527 L 402.769562 88.71698 C 407.004028 88.71698 409.121246 87.204681 409.121246 84.180054 Z M 156.868561 85.994843 L 159.590714 85.994843 C 166.849808 85.994843 170.479309 91.741486 170.479309 103.235107 C 170.479309 114.72876 166.849808 120.475403 159.590714 120.475403 L 156.868561 120.475403 C 149.609451 120.475403 145.97995 114.72876 145.97995 103.235107 C 145.97995 91.741486 149.609451 85.994843 156.868561 85.994843 Z M 182.275299 85.994843 L 184.997452 85.994843 C 192.256546 85.994843 195.886063 91.741486 195.886063 103.235107 C 195.886063 114.72876 192.256546 120.475403 184.997452 120.475403 L 182.275299 120.475403 C 175.016205 120.475403 171.386688 114.72876 171.386688 103.235107 C 171.386688 91.741486 175.016205 85.994843 182.275299 85.994843 Z M 237.625717 85.994843 C 246.094681 85.994843 250.329086 91.439026 250.329086 102.327728 C 250.329086 114.4263 245.792221 120.475403 236.718338 120.475403 L 235.810944 120.475403 C 229.761703 119.265564 226.737106 116.240967 226.737106 111.401581 L 233.088791 111.401581 C 233.391251 113.821259 234.298645 115.031097 235.810944 115.031097 L 236.718338 115.031097 C 241.557739 115.031097 243.977402 111.704041 243.977402 105.049896 C 241.557709 107.469574 238.230667 108.679413 233.996185 108.679413 C 228.551849 106.864655 225.829727 102.932648 225.829727 96.883423 C 225.829727 90.531738 229.761673 86.902222 237.625717 85.994843 Z M 118.75843 86.902222 L 124.202736 86.902222 L 124.202736 119.568024 L 117.851051 119.568024 L 117.851051 98.698212 L 109.684593 98.698212 L 109.684593 93.253906 C 115.733849 93.253906 118.75843 91.136658 118.75843 86.902222 Z M 198.608215 86.902222 L 221.292801 86.902222 L 221.292801 92.346527 C 214.033707 100.361725 210.404205 109.435486 210.404205 119.568024 L 204.052521 119.568024 C 204.052521 112.0065 207.379562 103.235229 214.033737 93.253906 L 198.608215 93.253906 Z M 266.661987 86.902222 L 272.106293 86.902222 L 272.106293 106.864655 L 276.643219 106.864655 L 276.643219 112.30896 L 272.106293 112.30896 L 272.106293 119.568024 L 265.754608 119.568024 L 265.754608 112.30896 L 252.14386 112.30896 L 252.14386 105.957275 C 261.368988 93.253815 266.208313 86.902222 266.661987 86.902222 Z M 152.331635 100.51297 L 152.331635 105.957275 C 152.331635 112.0065 154.448837 115.031097 158.683319 115.031097 C 162.312881 115.031097 164.127625 112.0065 164.127625 105.957275 L 164.127625 100.51297 C 164.127625 94.463745 162.010422 91.439117 157.77594 91.439117 C 154.146378 91.439117 152.331635 94.463745 152.331635 100.51297 Z M 177.738388 100.51297 L 177.738388 105.957275 C 177.738388 112.0065 179.855591 115.031097 184.090073 115.031097 C 187.719635 115.031097 189.534378 112.0065 189.534378 105.957275 L 189.534378 100.51297 C 189.534378 94.463745 187.417175 91.439117 183.182678 91.439117 C 179.553131 91.439117 177.738388 94.463745 177.738388 100.51297 Z M 232.181412 97.790833 C 232.181412 100.21051 233.391251 102.025269 235.810944 103.235107 L 239.440475 103.235107 C 240.34787 103.235107 241.557709 102.025269 243.070023 99.605591 L 243.070023 95.068665 C 243.070023 94.161285 241.860168 92.951447 239.440475 91.439117 L 235.810944 91.439117 C 233.391251 92.346527 232.181412 94.463745 232.181412 97.790833 Z M 257.588165 106.864655 L 265.754608 106.864655 L 265.754608 95.976044 C 264.544769 96.429749 261.822632 100.059265 257.588165 106.864655 Z M 135.091339 112.30896 L 142.350418 112.30896 L 142.350418 119.568024 L 135.091339 119.568024 Z M 199.515594 164.029846 L 230.366638 164.029846 L 230.366638 217.565491 L 286.624451 217.565491 L 286.624451 164.029846 L 317.475494 164.029846 L 317.475494 303.766968 L 286.624451 303.766968 L 286.624451 242.972229 L 230.366638 242.972229 L 230.366638 303.766968 L 199.515594 303.766968 Z M 118.75843 359.117371 L 124.202736 359.117371 L 124.202736 391.783173 L 117.851051 391.783173 L 117.851051 370.91333 L 109.684593 370.91333 L 109.684593 365.469055 C 115.733849 365.469055 118.75843 363.351807 118.75843 359.117371 Z"/>
</svg>
